<?xml version="1.0" encoding="UTF-8" standalone="no"?>
<!DOCTYPE svg PUBLIC "-//W3C//DTD SVG 1.1//EN" "http://www.w3.org/Graphics/SVG/1.1/DTD/svg11.dtd">
<svg version="1.1" xmlns="http://www.w3.org/2000/svg" xmlns:xlink="http://www.w3.org/1999/xlink" preserveAspectRatio="xMidYMid meet" viewBox="0 0 640 640" width="64" height="64"><defs><path d="M111.56 345.68L112.75 354.04L114.27 362.3L116.11 370.44L118.26 378.46L120.71 386.35L123.47 394.1L126.51 401.71L129.84 409.17L133.45 416.47L137.34 423.61L141.48 430.58L145.89 437.38L150.54 443.99L155.44 450.41L160.58 456.63L165.94 462.65L171.54 468.46L177.35 474.06L183.37 479.42L189.59 484.56L196.01 489.46L202.62 494.11L209.42 498.52L216.39 502.66L223.53 506.55L230.83 510.16L238.29 513.49L245.9 516.53L253.65 519.29L261.54 521.74L269.56 523.89L277.7 525.73L285.96 527.25L294.32 528.44L302.79 529.3L311.35 529.82L320 530L328.65 529.82L337.21 529.3L345.68 528.44L354.04 527.25L362.3 525.73L370.44 523.89L378.46 521.74L386.35 519.29L394.1 516.53L401.71 513.49L409.17 510.16L416.47 506.55L423.61 502.66L430.58 498.52L437.38 494.11L443.99 489.46L450.41 484.56L456.63 479.42L462.65 474.06L468.46 468.46L474.06 462.65L479.42 456.63L484.56 450.41L489.46 443.99L494.11 437.38L498.52 430.58L502.66 423.61L506.55 416.47L510.16 409.17L513.49 401.71L516.53 394.1L519.29 386.35L521.74 378.46L523.89 370.44L525.73 362.3L527.25 354.04L528.44 345.68L529.3 337.21L529.82 328.65L530 320L529.82 311.35L529.3 302.79L528.44 294.32L527.25 285.96L525.73 277.7L523.89 269.56L521.74 261.54L519.29 253.65L516.53 245.9L513.49 238.29L510.16 230.83L506.55 223.53L502.66 216.39L498.52 209.42L494.11 202.62L489.46 196.01L484.56 189.59L479.42 183.37L474.06 177.35L468.46 171.54L462.65 165.94L456.63 160.58L450.41 155.44L443.99 150.54L437.38 145.89L430.58 141.48L423.61 137.34L416.47 133.45L409.17 129.84L401.71 126.51L394.1 123.47L386.35 120.71L378.46 118.26L370.44 116.11L362.3 114.27L354.04 112.75L345.68 111.56L337.21 110.7L328.65 110.18L320 110L311.35 110.18L302.79 110.7L294.32 111.56L285.96 112.75L285 112.93L285 42.19L285.76 42.08L297.05 40.93L308.47 40.23L320 40L331.53 40.23L342.95 40.93L354.24 42.08L365.39 43.67L376.4 45.69L387.25 48.14L397.94 51.01L408.46 54.28L418.8 57.96L428.94 62.02L438.89 66.46L448.63 71.27L458.15 76.45L467.45 81.98L476.51 87.85L485.32 94.05L493.88 100.59L502.18 107.44L510.21 114.59L517.95 122.05L525.41 129.79L532.56 137.82L539.41 146.12L545.95 154.68L552.15 163.49L558.02 172.55L563.55 181.85L568.73 191.37L573.54 201.11L577.98 211.06L582.04 221.2L585.72 231.54L588.99 242.06L591.86 252.75L594.31 263.6L596.33 274.61L597.92 285.76L599.07 297.05L599.77 308.47L600 320L599.77 331.53L599.07 342.95L597.92 354.24L596.33 365.39L594.31 376.4L591.86 387.25L588.99 397.94L585.72 408.46L582.04 418.8L577.98 428.94L573.54 438.89L568.73 448.63L563.55 458.15L558.02 467.45L552.15 476.51L545.95 485.32L539.41 493.88L532.56 502.18L525.41 510.21L517.95 517.95L510.21 525.41L502.18 532.56L493.88 539.41L485.32 545.95L476.51 552.15L467.45 558.02L458.15 563.55L448.63 568.73L438.89 573.54L428.94 577.98L418.8 582.04L408.46 585.72L397.94 588.99L387.25 591.86L376.4 594.31L365.39 596.33L354.24 597.92L342.95 599.07L331.53 599.77L320 600L308.47 599.77L297.05 599.07L285.76 597.92L274.61 596.33L263.6 594.31L252.75 591.86L242.06 588.99L231.54 585.72L221.2 582.04L211.06 577.98L201.11 573.54L191.37 568.73L181.85 563.55L172.55 558.02L163.49 552.15L154.68 545.95L146.12 539.41L137.82 532.56L129.79 525.41L122.05 517.95L114.59 510.21L107.44 502.18L100.59 493.88L94.05 485.32L87.85 476.51L81.98 467.45L76.45 458.15L71.27 448.63L66.46 438.89L62.02 428.94L57.96 418.8L54.28 408.46L51.01 397.94L48.14 387.25L45.69 376.4L43.67 365.39L42.08 354.24L40.93 342.95L40.23 331.53L40 320L40 40L110 40L110 320L110.18 328.65L110.7 337.21L111.56 345.68Z" id="aEUhOTop"></path><path d="M345.68 121.48L354.04 122.62L355 122.79L355 517.21L354.04 517.38L345.68 518.52L337.21 519.34L328.65 519.83L320 520L311.35 519.83L302.79 519.34L294.32 518.52L285.96 517.38L285 517.21L285 122.79L285.96 122.62L294.32 121.48L302.79 120.66L311.35 120.17L320 120L328.65 120.17L337.21 120.66L337.21 120.66L345.68 121.48Z" id="c4Aw14nex"></path></defs><g><g><g><use xlink:href="#aEUhOTop" opacity="1" fill="#655c71" fill-opacity="1"></use></g><g><use xlink:href="#c4Aw14nex" opacity="1" fill="#655c71" fill-opacity="1"></use></g></g></g></svg>